<svg width="100" height="100"
    xmlns="http://www.w3.org/2000/svg"
    xmlns:xlink="http://www.w3.org/1999/xlink" xml:space="preserve" overflow="hidden">
    <g transform="translate(-414 -310)">
        <path d="M443.4 363.4 485.5 363.4C486.2 363.4 486.8 362.8 486.8 362.1L486.8 358.6C486.8 357.1 486.5 355.6 486 354.4 485.5 353.3 484.8 352.4 483.8 351.7 481.4 350 477.9 348.7 474.1 347.5 473.9 347.4 473.7 347.6 473.6 347.8L469.9 358.4C469.8 358.8 469.3 358.8 469.1 358.5L466.1 353.2C466 353 466 352.8 466.2 352.6 469.9 349.1 468.3 346.2 464.5 345.9L464.4 345.9C460.6 346.2 459.1 349.1 462.7 352.6 462.9 352.7 462.9 353 462.8 353.2L459.8 358.5C459.6 358.8 459.1 358.8 459 358.4L455.3 347.8C455.2 347.6 455 347.4 454.8 347.5 450.9 348.7 447.5 350 445.1 351.7 444.2 352.3 443.6 353.1 443.1 354 442.5 355.3 442.2 356.8 442.2 358.5L442.2 362C442.2 362.8 442.8 363.4 443.4 363.4ZM478.2 356.1C478.5 356 478.8 356 479.1 356.2L481.6 358 474.6 358 478.2 356.1ZM495.9 366.6 432.1 366.6C431.3 366.6 430.6 367.3 430.6 368.1L430.6 374.1C430.6 374.9 431.3 375.6 432.1 375.6L438.3 375.6 438.3 402.8C438.3 404 439.3 404.9 440.4 404.9L487.5 404.9C488.7 404.9 489.6 403.9 489.6 402.8L489.6 375.7 495.8 375.7C496.6 375.7 497.3 375 497.3 374.2L497.3 368.2C497.4 367.3 496.8 366.6 495.9 366.6ZM453.9 322.5C453.5 323.8 453.3 325.3 453.3 326.8 453.3 327.1 453.3 327.3 453.3 327.6 453.3 336.1 458.3 343.1 464.5 343.1 470.7 343.1 475.7 336.2 475.7 327.6 475.7 327.3 475.7 327 475.7 326.8 475.6 325.3 475.4 323.8 475.1 322.5 473.6 318.2 469.4 315 464.5 315 459.6 315 455.4 318.2 453.9 322.5Z" fill="#1A1A1A"/>
    </g>
</svg>