<svg width="38" height="38" xmlns="http://www.w3.org/2000/svg" xmlns:xlink="http://www.w3.org/1999/xlink" xml:space="preserve" overflow="hidden">
<g transform="translate(-512 -444)">
<path d="M547.663 481.749 514.294 481.749C513.143 481.749 512.209 480.815 512.209 479.663L512.209 446.294C512.209 445.143 513.143 444.209 514.294 444.209L547.663 444.209C548.815 444.209 549.749 445.143 549.749 446.294L549.749 479.663C549.749 480.815 548.815 481.749 547.663 481.749Z" fill="#FFFFFF"/>
<path d="M528.171 471.16C527.637 471.16 527.104 470.957 526.696 470.549L520.119 463.973C519.304 463.158 519.304 461.838 520.119 461.023 520.933 460.209 522.254 460.209 523.068 461.023L528.171 466.125 538.889 455.408C539.703 454.594 541.024 454.594 541.838 455.408 542.652 456.222 542.652 457.543 541.838 458.357L529.646 470.549C529.239 470.957 528.705 471.16 528.171 471.16Z" fill="#27C448"/></g></svg>
