<svg width="20" height="22"
    xmlns="http://www.w3.org/2000/svg"
    xmlns:xlink="http://www.w3.org/1999/xlink" xml:space="preserve" overflow="hidden">
    <defs>
        <clipPath id="clip0">
            <rect x="629" y="349" width="20" height="22"/>
        </clipPath>
    </defs>
    <g clip-path="url(#clip0)" transform="translate(-629 -349)">
        <path d="M108.859 40.9841 114.755 35.0875C115.719 34.174 115.76 32.652 114.847 31.6881 113.933 30.7241 112.411 30.6834 111.448 31.5968 111.416 31.6264 111.385 31.6569 111.356 31.6881L105.459 37.5829 99.5627 31.6863C98.5991 30.7729 97.0771 30.8137 96.1633 31.7776 95.2843 32.7052 95.2843 34.1582 96.1633 35.0857L102.06 40.9823 96.1633 46.8789C95.2496 47.8428 95.2906 49.3648 96.2551 50.2783 97.1822 51.1573 98.6356 51.1573 99.5627 50.2783L105.459 44.3817 111.356 50.2783C112.32 51.1918 113.842 51.1509 114.755 50.187 115.634 49.2595 115.634 47.8065 114.755 46.8789Z" fill="#2F8FF9" transform="matrix(1 0 0 1.1 533.541 314.917)"/>
    </g>
</svg>