<svg width="512" height="512"
    xmlns="http://www.w3.org/2000/svg"
    xmlns:xlink="http://www.w3.org/1999/xlink" xml:space="preserve" overflow="hidden">
    <g transform="translate(-384 -104)">
        <path d="M777.6 537.7C777.6 532.1 775.7 527.4 772 523.7 768.3 520 763.6 518.1 758 518.1 752.4 518.1 747.7 520 744 523.7 740.3 527.4 738.4 532.1 738.4 537.7 738.4 543.3 740.3 548 744 551.7 747.7 555.4 752.4 557.3 758 557.3 763.6 557.3 768.3 555.4 772 551.7 775.7 547.9 777.6 543.3 777.6 537.7ZM856.8 537.7C856.8 532.1 854.9 527.4 851.2 523.7 847.5 520 842.8 518.1 837.2 518.1 831.6 518.1 826.9 520 823.2 523.7 818.5 528.4 816.7 533 816.7 537.7 816.7 543.3 818.6 548 822.3 551.7 826 555.4 830.7 557.3 836.3 557.3 841.9 557.3 846.6 555.4 850.3 551.7 855 547.9 856.8 543.3 856.8 537.7ZM896 468.6 896 567.5C896 575.9 893.2 582.4 887.6 588 882 593.6 874.5 596.4 867.1 596.4L412.9 596.4C404.5 596.4 398 593.6 392.4 588 386.8 582.4 384 575 384 567.5L384 468.6C384 460.2 386.8 453.7 392.4 448.1 398 442.5 405.5 439.7 412.9 439.7L555.6 439.7 597.6 481.7C609.7 492.9 623.7 499.4 639.6 499.4 655.5 499.4 669.4 493.8 681.6 481.7L723.6 439.7 866.3 439.7C874.7 439.7 881.2 442.5 886.8 448.1 893.2 453.7 896 461.2 896 468.6ZM796.2 293.3C799.9 301.7 798.1 309.2 791.5 314.7L653.5 452.7C649.8 456.4 645.1 458.3 639.5 458.3 633.9 458.3 629.2 456.4 625.5 452.7L487.5 314.7C481 309.1 480 301.6 482.8 293.3 486.5 284.9 492.1 281.2 501.5 281.2L580.8 281.2 580.8 143.2C580.8 137.6 582.7 132.9 586.4 129.2 590.1 125.5 594.8 123.6 600.4 123.6L679.7 123.6C685.3 123.6 690 125.5 693.7 129.2 697.4 132.9 699.3 137.6 699.3 143.2L699.3 281.2 778.6 281.2C786 281.2 792.5 285.9 796.2 293.3Z" fill="#FFFFFF"/>
    </g>
</svg>