<svg width="720" height="720" xmlns="http://www.w3.org/2000/svg" xmlns:xlink="http://www.w3.org/1999/xlink" xml:space="preserve" overflow="hidden"><defs><clipPath id="clip0"><rect x="-204" y="-18" width="720" height="720"/></clipPath></defs><g clip-path="url(#clip0)" transform="translate(204 18)"><path d="M179.151 528.777 506.415 201.504C519.196 188.725 519.196 168.002 506.413 155.221 493.632 142.442 472.911 142.442 460.13 155.223L156.007 459.353-148.132 155.221C-160.914 142.442-181.634 142.442-194.415 155.223-200.806 161.612-204 169.988-204 178.364-204 186.74-200.806 195.116-194.413 201.506L132.868 528.777C139.006 534.916 147.329 538.364 156.009 538.364 164.688 538.364 173.014 534.916 179.151 528.777Z" fill="#2F8FF9"/></g></svg>