<svg width="24" height="24"
    xmlns="http://www.w3.org/2000/svg"
    xmlns:xlink="http://www.w3.org/1999/xlink" xml:space="preserve" overflow="hidden">
    <defs>
        <clipPath id="clip0">
            <rect x="628" y="348" width="24" height="24"/>
        </clipPath>
    </defs>
    <g clip-path="url(#clip0)" transform="translate(-628 -348)">
        <path d="M633.968 371.942C633.145 371.814 632.354 371.533 631.636 371.112 630.016 370.183 628.807 368.519 628.419 366.686 628.268 365.969 628.249 365.063 628.269 359.479 628.288 353.47 628.274 353.78 628.56 352.79 628.702 352.297 629.097 351.45 629.383 351.023 630.438 349.453 631.99 348.445 633.913 348.08 634.297 348.007 634.853 348 639.969 348 646.22 348 646.014 347.991 647.035 348.314 649.044 348.964 650.638 350.51 651.349 352.498 651.679 353.435 651.695 353.585 651.718 356.053L651.738 358.283 651.347 358.551C650.789 358.932 650.057 359.611 649.031 360.701 647.849 361.957 646.655 363.121 646.049 363.608 644.74 364.659 643.541 365.259 642.323 365.472 641.689 365.582 640.641 365.539 640.021 365.377 639.468 365.233 639.504 365.209 639.295 365.841 639.125 366.341 639.018 366.86 638.977 367.387L638.946 367.794 638.8 367.764C637.585 367.523 636.381 366.479 635.916 365.264 635.759 364.876 635.671 364.463 635.656 364.045L635.64 363.705 635.331 363.421C634.687 362.831 634.268 362.109 634.136 361.36 633.924 360.167 634.476 358.818 635.674 357.604 636.938 356.321 638.801 355.314 640.627 354.924 641.285 354.784 642.445 354.747 643.03 354.849 644.168 355.047 645.097 355.622 645.675 356.488 645.857 356.759 645.87 356.798 645.852 357.043 645.847 357.223 645.783 357.397 645.669 357.536 645.204 358.187 643.821 358.884 642.333 359.216 639.708 359.801 638.039 359.074 638.3 357.457 638.326 357.294 638.34 357.153 638.331 357.144 638.299 357.112 638.038 357.248 637.756 357.444 637.277 357.778 636.853 358.428 636.706 359.051 636.67 359.207 636.656 359.457 636.672 359.701 636.692 360.032 636.725 360.155 636.864 360.437 636.956 360.623 637.139 360.887 637.272 361.026L637.512 361.277 637.416 361.399C637.133 361.77 636.905 362.18 636.739 362.616 636.551 363.202 636.515 363.827 636.634 364.431 636.737 364.892 637.055 365.526 637.373 365.899 637.615 366.184 638.17 366.663 638.259 366.663 638.283 366.663 638.303 366.615 638.303 366.557 638.304 366.327 638.487 365.584 638.629 365.23 639.052 364.172 639.98 363.27 641.449 362.49 641.694 362.36 642.401 362.02 643.021 361.733 644.381 361.103 645.124 360.718 645.532 360.428 646.708 359.595 647.435 358.363 647.672 356.803 647.758 356.233 647.758 355.169 647.672 354.596 647.304 352.158 645.477 350.5 642.854 350.226 639.929 349.919 636.206 352.179 633.912 355.653 632.796 357.343 632.042 359.218 631.725 361.096 631.602 361.824 631.556 363.176 631.632 363.846 631.825 365.55 632.454 366.924 633.535 368.002 634.076 368.546 634.709 368.991 635.405 369.315 637.773 370.445 640.395 370.47 642.7 369.386 643.696 368.917 644.674 368.19 645.723 367.136 646.743 366.111 647.433 365.256 649.315 362.678 650.355 361.255 651.179 360.31 651.587 360.073L651.737 359.987 651.718 363.078C651.7 366.071 651.696 366.185 651.595 366.639 650.995 369.317 649.055 371.275 646.4 371.881L645.932 371.988 640.157 371.998C635.423 372.006 634.307 371.996 633.967 371.942Z" fill="#05425F"/>
    </g>
</svg>