<svg width="38" height="38" xmlns="http://www.w3.org/2000/svg" xmlns:xlink="http://www.w3.org/1999/xlink" xml:space="preserve" overflow="hidden"><g transform="translate(-626 -444)">
<path d="M661.663 481.749 628.294 481.749C627.143 481.749 626.209 480.815 626.209 479.663L626.209 446.294C626.209 445.143 627.143 444.209 628.294 444.209L661.663 444.209C662.815 444.209 663.749 445.143 663.749 446.294L663.749 479.663C663.749 480.815 662.815 481.749 661.663 481.749Z" fill="#FFFFFF"/>
<path d="M637.018 473.025C636.484 473.025 635.95 472.822 635.543 472.414 634.728 471.6 634.728 470.279 635.543 469.465L651.465 453.543C652.279 452.729 653.6 452.729 654.414 453.543 655.228 454.358 655.228 455.678 654.414 456.493L638.493 472.414C638.085 472.822 637.552 473.025 637.018 473.025Z" fill="#EC0000"/>
<path d="M652.94 473.025C652.406 473.025 651.872 472.822 651.465 472.414L635.543 456.493C634.728 455.678 634.728 454.357 635.543 453.543 636.357 452.729 637.678 452.729 638.492 453.543L654.414 469.465C655.228 470.279 655.228 471.6 654.414 472.414 654.007 472.822 653.473 473.025 652.94 473.025Z" fill=" #EC0000"/>
</g>
</svg>
