<svg width="59" height="48" xmlns="http://www.w3.org/2000/svg" xmlns:xlink="http://www.w3.org/1999/xlink" xml:space="preserve" overflow="hidden"><g transform="translate(-596 -324)"><path d="M33.4964 47.6389C33.3837 47.6944 33.2665 47.7401 33.1459 47.7753 33.0187 47.8116 32.8882 47.8351 32.7564 47.8454 32.6269 47.8573 32.4965 47.8573 32.3669 47.8454 32.2358 47.8356 32.1056 47.8161 31.9774 47.787 31.8437 47.7518 31.7133 47.7049 31.5879 47.6467L31.5879 47.6468C31.4621 47.5896 31.3421 47.5205 31.2296 47.4403L31.2296 47.4403C31.1212 47.3591 31.0196 47.2692 30.9258 47.1716 30.8298 47.0677 30.7449 46.9542 30.6726 46.8327L27.136 41.037 24.1408 44.5425C24.0061 44.703 23.863 44.8564 23.7124 45.0021 23.5604 45.1462 23.4085 45.2786 23.2528 45.3916L23.2216 45.415C23.0723 45.5306 22.9163 45.6373 22.7542 45.7343 22.5993 45.8276 22.4379 45.9096 22.2712 45.9797 22.1453 46.0377 22.0151 46.0859 21.8818 46.1238 21.7545 46.163 21.6242 46.1917 21.4922 46.2095 21.3555 46.2283 21.2174 46.2374 21.0794 46.2368 20.9487 46.2316 20.8186 46.2173 20.6899 46.194 20.5325 46.164 20.3786 46.1183 20.2303 46.0576 20.0848 45.9992 19.9464 45.9247 19.8174 45.8356 19.6884 45.7462 19.5684 45.6445 19.4591 45.5318L19.4591 45.5318C19.3508 45.4106 19.2531 45.2802 19.167 45.1423L19.1241 45.0644 19.0891 44.9826 18.5867 43.6233 18.5867 43.557 15.9342 16.8495C15.9086 16.6778 15.9086 16.5032 15.9342 16.3314 15.9646 16.1615 16.0211 15.9973 16.1016 15.8446 16.23 15.6022 16.416 15.3948 16.643 15.2409L16.643 15.2409C16.7515 15.1659 16.8693 15.1057 16.9936 15.0617 17.1192 15.0149 17.25 14.9835 17.3831 14.9682L17.3831 14.9682C17.5506 14.9494 17.72 14.956 17.8855 14.9877 18.0552 15.0214 18.2191 15.0791 18.3724 15.1591L18.4893 15.2214C23.7513 18.6645 28.655 21.8662 33.5393 25.0561L40.9397 29.882C41.0743 29.9685 41.2043 30.0621 41.3292 30.1624L41.3292 30.1624C41.4414 30.2504 41.5481 30.3453 41.6485 30.4467L41.6719 30.4739C41.7718 30.5735 41.8642 30.6803 41.9484 30.7934 42.0323 30.8996 42.1066 31.0129 42.1704 31.1322 42.2509 31.2734 42.3175 31.4221 42.3691 31.5762 42.419 31.7241 42.453 31.8769 42.4704 32.032 42.4879 32.1885 42.4879 32.3466 42.4704 32.5032L42.4704 32.5032C42.4548 32.6602 42.4248 32.8153 42.3808 32.9667 42.299 33.229 42.1754 33.4763 42.0147 33.699 41.9368 33.8138 41.8495 33.9219 41.7537 34.0223 41.6548 34.1288 41.5481 34.2277 41.4343 34.3183 41.2912 34.4363 41.1403 34.5442 40.9825 34.6415 40.814 34.7425 40.6398 34.8336 40.4606 34.9142 40.2775 34.996 40.0711 35.0739 39.8919 35.1401 39.694 35.2072 39.4924 35.2632 39.2882 35.3076L39.2882 35.3076C38.2093 35.5179 37.1343 35.7789 36.0671 36.036L34.8012 36.3359 38.3067 42.1548C38.3786 42.2788 38.4385 42.4092 38.4859 42.5444 38.6273 42.9465 38.6476 43.3812 38.5443 43.7947L38.5443 43.8336C38.5125 43.9593 38.4695 44.0818 38.4157 44.1997 38.3588 44.3204 38.2924 44.4363 38.2171 44.5464 38.139 44.6597 38.0503 44.7653 37.9522 44.8619 37.8537 44.9581 37.7468 45.0454 37.6329 45.1228L36.8539 45.6252C35.7764 46.3637 34.6552 47.0362 33.4964 47.6389ZM14.6566 7.57953C15.0555 8.34194 14.7607 9.28333 13.9983 9.68219 13.2809 10.0574 12.3957 9.82073 11.9613 9.13749L8.84541 3.68461C8.46187 2.91436 8.77539 1.97905 9.54569 1.59555 10.2484 1.24567 11.1017 1.47326 11.5368 2.12664L14.6761 7.57953ZM8.81425 25.7962C9.58448 25.4126 10.5198 25.7262 10.9033 26.4965 11.2532 27.1992 11.0256 28.0525 10.3722 28.4875L4.9193 31.6269C4.14905 32.0103 3.21374 31.6968 2.83024 30.9266 2.48036 30.2239 2.70795 29.3706 3.36133 28.9355L8.81425 25.7962ZM8.00798 15.5174C8.82878 15.7756 9.28498 16.6502 9.02683 17.471 8.78413 18.2427 7.99128 18.7003 7.20171 18.5243L1.16848 16.8884C0.355245 16.6073-0.0761425 15.7202 0.204951 14.907 0.455014 14.1835 1.19359 13.7489 1.94747 13.8815L7.99627 15.5174ZM31.9385 16.0354C31.1682 16.419 30.2329 16.1054 29.8494 15.3351 29.4995 14.6324 29.7271 13.7792 30.3805 13.3441L35.8334 10.2047C36.6037 9.82119 37.539 10.1348 37.9225 10.905 38.2724 11.6077 38.0447 12.461 37.3914 12.8962L31.9385 16.0354ZM24.7172 8.01186C24.5538 8.85666 23.7364 9.40892 22.8917 9.24546 22.0469 9.08193 21.4946 8.26461 21.6581 7.41981 21.6719 7.34847 21.6907 7.27825 21.7143 7.20953L23.319 1.16848C23.6001 0.355245 24.4872-0.0761425 25.3004 0.204951 26.0239 0.455014 26.4585 1.19359 26.3259 1.94747L24.7172 8.01186ZM32.5733 45.5435 36.3397 43.261C35.0232 41.0721 32.8928 37.9834 31.8567 35.7945 31.837 35.7491 31.8214 35.7023 31.8099 35.6543 31.6961 35.1509 32.0117 34.6505 32.5149 34.5364 34.6104 34.0573 36.7526 33.6055 38.8325 33.0836 39.0727 33.03 39.3073 32.9544 39.5336 32.8576 39.7141 32.7791 39.8842 32.6783 40.04 32.5577 40.0932 32.5124 40.1426 32.4629 40.188 32.4097 40.2108 32.3816 40.2293 32.3501 40.2425 32.3163L40.2191 32.2461C40.1734 32.1686 40.1156 32.0989 40.0477 32.0397 39.9476 31.9483 39.8394 31.8662 39.7245 31.7943L18.3296 17.8193C19.1514 26.1389 20.355 34.996 20.8418 43.2571 20.8546 43.3886 20.878 43.5189 20.9119 43.6467 20.9362 43.7308 20.9701 43.8118 21.0132 43.8881L21.0638 43.9427C21.1013 43.9481 21.1393 43.9481 21.1767 43.9427 21.245 43.9271 21.3115 43.9049 21.3754 43.8765 21.5544 43.7963 21.722 43.6928 21.8739 43.5687 22.0635 43.4112 22.2395 43.2379 22.3998 43.0507 23.1515 42.1666 26.1389 38.3223 26.84 37.9172 27.2813 37.6548 27.8516 37.7973 28.1175 38.2366L32.5733 45.5396Z" transform="matrix(1.38704 0 0 1 596 324.07)"/></g></svg>