<svg xmlns="http://www.w3.org/2000/svg" width="26.938" height="30.366" viewBox="0 0 26.938 30.366">
    <path d="M13,31.366H39.938V6.784H33.473V1H13V14.5h2.155V2.928H31.318V8.712h6.465V29.438H13Z" transform="translate(-13 -1)"/>
    <path d="M15.771,76.543a2.771,2.771,0,0,0,0-5.543H13v8.194h1.928V76.543Zm-.843-3.615h.843a.843.843,0,1,1,0,1.687h-.843Z" transform="translate(-13 -54.13)"/>
    <path d="M81.82,72.928V71H77v8.194h1.928V76.543h1.446V74.615H78.928V72.928Z" transform="translate(-59.306 -54.13)"/>
    <path d="M50.025,75.1a4.094,4.094,0,0,0-4.1-4.1H44v8.194h1.928A4.094,4.094,0,0,0,50.025,75.1Zm-4.1,2.169V72.928a2.169,2.169,0,1,1,0,4.338Z" transform="translate(-35.356 -54.13)"/>
</svg>