<svg xmlns="http://www.w3.org/2000/svg" width="34.021" height="34.021" viewBox="0 0 34.021 34.021">
  <g id="Group_11343" data-name="Group 11343" transform="translate(-935.96 -1232.713)">
    <g id="edit" transform="translate(935.96 1232.713)">
      <path id="Path_8860" data-name="Path 8860" d="M22.158,15.505H5.063A1.064,1.064,0,0,1,4,14.442V8.063A1.064,1.064,0,0,1,5.063,7H25.617A1.064,1.064,0,0,1,26.68,8.063v3.189a1.063,1.063,0,0,1-2.126,0V9.126H6.126v4.253H22.158a1.063,1.063,0,1,1,0,2.126Z" transform="translate(1.67 2.923)"/>
      <path id="Path_8861" data-name="Path 8861" d="M17.9,16.616H5.113a1.063,1.063,0,1,1,0-2.126H17.9a1.063,1.063,0,1,1,0,2.126Z" transform="translate(1.691 6.05)"/>
      <path id="Path_8862" data-name="Path 8862" d="M13.675,19.616H5.113a1.063,1.063,0,0,1,0-2.126h8.562a1.063,1.063,0,0,1,0,2.126Z" transform="translate(1.691 7.302)"/>
      <path id="Path_8863" data-name="Path 8863" d="M12.84,29.146A1.063,1.063,0,0,1,11.794,27.9l.751-4.26a1.077,1.077,0,0,1,.295-.567L23.365,12.547a2.85,2.85,0,0,1,1.412-.829,1.972,1.972,0,0,1,1.846.58l1.753,1.753a2.485,2.485,0,0,1,0,3.508L17.852,28.085a1.057,1.057,0,0,1-.567.295l-4.26.751a1.173,1.173,0,0,1-.186.016ZM17.1,27.332h.014Zm-2.52-2.994-.43,2.434,2.434-.43L26.872,16.054a.357.357,0,0,0,0-.5l-1.741-1.741c-.014.027-.12.095-.264.237Z" transform="translate(4.917 4.874)"/>
      <path id="Path_8864" data-name="Path 8864" d="M13.934,31.185H3.9a3.9,3.9,0,0,1-3.9-3.9V3.9A3.9,3.9,0,0,1,3.9,0H30.122a3.9,3.9,0,0,1,3.9,3.9V14.232a1.063,1.063,0,1,1-2.126,0V3.9a1.774,1.774,0,0,0-1.772-1.772H3.9A1.774,1.774,0,0,0,2.126,3.9V27.287A1.774,1.774,0,0,0,3.9,29.059H13.934a1.063,1.063,0,1,1,0,2.126Z"/>
      <path id="Path_8865" data-name="Path 8865" d="M32.957,5.626H1.063a1.063,1.063,0,1,1,0-2.126H32.957a1.063,1.063,0,1,1,0,2.126Z" transform="translate(0 1.461)"/>
    </g>
  </g>
</svg>
