<svg width="720" height="720"
    xmlns="http://www.w3.org/2000/svg"
    xmlns:xlink="http://www.w3.org/1999/xlink" xml:space="preserve" overflow="hidden">
    <g transform="translate(287 0)">
        <path d="M280.477 517.148C150.117 517.148 44.0156 411.047 44.0156 280.688 44.0859 150.398 150.117 44.2969 280.477 44.2969 410.836 44.2969 516.867 150.398 516.867 280.688 516.938 411.047 410.836 517.148 280.477 517.148M280.477 96.8203C179.086 96.8203 96.6094 179.297 96.6094 280.688 96.6094 382.078 179.156 464.555 280.477 464.555 381.867 464.555 464.344 382.078 464.344 280.688 464.414 179.297 381.867 96.8203 280.477 96.8203" fill="#FFFFFF" transform="matrix(-1 0 0 1 433 0)"/>
        <path d="M608.836 674.719C592.031 674.719 575.227 668.32 562.43 655.523L379.898 472.922C369.633 462.656 369.633 445.992 379.898 435.797 390.164 425.531 406.758 425.531 417.023 435.797L599.555 618.398C604.758 623.602 612.914 623.602 618.117 618.398 620.719 615.797 621.984 612.703 621.984 609.117 621.984 605.531 620.648 602.438 618.117 599.836L504.773 486.422C494.508 476.156 494.508 459.562 504.773 449.297 515.039 439.031 531.633 439.031 541.898 449.297L655.242 562.641C667.688 575.086 674.508 591.539 674.508 609.047 674.508 626.555 667.688 643.008 655.242 655.453 642.445 668.25 625.641 674.719 608.836 674.719M175.43 306.984C160.945 306.984 149.203 295.242 149.203 280.688 149.203 208.266 208.125 149.344 280.547 149.344 295.031 149.344 306.773 161.086 306.773 175.641 306.773 190.125 295.031 201.867 280.547 201.867 237.094 201.867 201.727 237.234 201.727 280.688 201.727 295.172 189.914 306.984 175.43 306.984" fill="#FFFFFF" transform="matrix(-1 0 0 1 433 0)"/>
    </g>
</svg>