<svg width="39" height="39" xmlns="http://www.w3.org/2000/svg" xmlns:xlink="http://www.w3.org/1999/xlink" xml:space="preserve" overflow="hidden"><defs><clipPath id="clip0"><rect x="187" y="681" width="39" height="39"/></clipPath></defs><g clip-path="url(#clip0)" transform="translate(-187 -681)"><path d="M9.70401 28.6421 27.4308 10.9148C28.1231 10.2226 28.1231 9.10011 27.4307 8.4078 26.7384 7.71561 25.616 7.71561 24.9237 8.40791L8.45038 24.8816-8.02382 8.4078C-8.71618 7.71561-9.83851 7.71561-10.5308 8.40791-10.877 8.75398-11.05 9.20768-11.05 9.66138-11.05 10.1151-10.877 10.5688-10.5307 10.9149L7.19702 28.6421C7.52949 28.9746 7.98032 29.1614 8.45049 29.1614 8.9206 29.1614 9.37159 28.9746 9.70401 28.6421Z" fill="#2F8FF9" transform="matrix(1 -1.22465e-16 -1.22465e-16 -1 198.05 719.025)"/></g></svg>